<svg width="52" height="53" viewBox="0 0 52 53" fill="none" xmlns="http://www.w3.org/2000/svg">
<rect x="0.25" y="0.75" width="51.5" height="51.5" rx="7.75" fill="#F6F6F6"/>
<path d="M34.7475 25.1386C34.0846 24.1051 32.5743 24.1051 31.9113 25.1386L27.6982 31.706C26.9789 32.8274 27.7841 34.3006 29.1164 34.3006H37.5424C38.8747 34.3006 39.6799 32.8274 38.9606 31.706L34.7475 25.1386Z" fill="#D9D9D9"/>
<path d="M23.3733 20.0731C22.7099 19.0429 21.2036 19.0429 20.5402 20.0731L13.0505 31.7036C12.3285 32.8248 13.1335 34.3006 14.4671 34.3006H29.4464C30.78 34.3006 31.5849 32.8248 30.8629 31.7036L23.3733 20.0731Z" fill="#D9D9D9"/>
<path d="M29.1173 20.4007C29.1173 21.3312 29.8716 22.0855 30.8021 22.0855C31.7327 22.0855 32.487 21.3312 32.487 20.4007C32.487 19.4702 31.7327 18.7158 30.8021 18.7158C29.8716 18.7158 29.1173 19.4702 29.1173 20.4007Z" fill="#D9D9D9"/>
</svg>
